<?xml version="1.0" standalone="no"?>
<!DOCTYPE svg PUBLIC "-//W3C//DTD SVG 20010904//EN"
 "http://www.w3.org/TR/2001/REC-SVG-20010904/DTD/svg10.dtd">
<svg version="1.0" xmlns="http://www.w3.org/2000/svg"
 width="900.000000pt" height="900.000000pt" viewBox="0 0 900.000000 900.000000"
 preserveAspectRatio="xMidYMid meet">
<metadata>
Created by potrace 1.14, written by Peter Selinger 2001-2017
</metadata>
<g transform="translate(0.000000,900.000000) scale(0.100000,-0.100000)"
fill="#000000" stroke="none">
<path d="M4350 8284 c-563 -31 -1033 -150 -1515 -385 -686 -333 -1272 -891
-1650 -1570 -242 -435 -395 -920 -452 -1431 -20 -183 -23 -587 -5 -758 50
-471 164 -876 364 -1290 479 -994 1381 -1738 2443 -2015 231 -60 430 -93 733
-119 l62 -6 0 753 0 752 -176 110 -176 110 6 175 c8 263 99 990 132 1055 23
47 44 148 33 161 -6 8 0 13 20 17 47 10 66 48 66 137 0 62 -4 83 -25 120 -14
25 -38 51 -53 58 -23 11 -31 11 -57 -5 -16 -9 -34 -29 -39 -43 l-9 -25 -15 35
c-9 19 -42 96 -75 170 -52 117 -63 135 -88 143 -114 34 -180 79 -230 159 -31
49 -64 149 -64 194 0 33 8 45 65 100 50 48 65 69 65 91 0 62 -32 67 -88 12
-40 -40 -48 -64 -28 -94 15 -22 15 -25 1 -25 -8 0 -24 9 -35 20 -24 24 -28
102 -6 122 11 11 9 15 -15 25 -34 14 -46 61 -30 121 9 31 26 54 66 89 51 43
55 50 55 90 0 31 -5 45 -16 50 -21 8 -65 -26 -89 -70 -17 -30 -18 -41 -8 -67
9 -24 9 -30 -2 -30 -24 0 -45 43 -45 89 0 41 5 49 65 112 45 46 65 75 65 92 0
65 -33 75 -76 25 -35 -43 -54 -88 -54 -135 l-1 -38 -19 24 c-24 28 -27 99 -6
139 8 15 37 49 65 75 45 42 51 53 51 88 0 55 -22 61 -67 18 -46 -45 -63 -79
-63 -130 0 -35 -2 -40 -14 -30 -21 17 -29 64 -21 113 6 33 20 56 66 104 50 52
59 66 59 98 0 105 -106 5 -119 -112 l-7 -57 -17 32 c-9 18 -17 54 -17 81 0 28
-7 63 -15 78 -8 16 -15 53 -15 82 0 49 4 57 60 128 61 76 74 117 50 154 -23
37 -94 -69 -108 -160 l-8 -55 -17 49 c-87 250 75 613 336 752 66 36 78 39 153
39 94 0 110 -9 146 -84 26 -55 33 -61 76 -61 72 0 84 25 57 117 -19 64 -56
101 -108 110 l-41 6 43 13 c78 23 134 -19 185 -139 19 -44 36 -68 53 -76 58
-26 84 16 64 102 -24 103 -78 154 -155 144 -23 -3 -52 -9 -66 -12 -20 -5 -22
-4 -9 4 9 6 48 16 85 22 62 11 73 10 107 -6 46 -22 79 -68 107 -150 22 -66 40
-85 81 -85 39 0 41 19 13 104 -30 89 -54 122 -97 136 -28 9 -25 9 22 5 42 -3
58 -10 78 -32 29 -33 55 -83 73 -136 14 -46 46 -77 76 -77 35 0 38 16 14 80
-28 74 -73 127 -125 146 l-40 15 43 -6 c92 -12 142 -54 177 -148 10 -27 27
-59 37 -73 21 -26 56 -32 64 -10 10 25 -37 116 -79 151 -45 38 -43 44 6 19 50
-26 76 -54 108 -119 16 -33 36 -69 45 -80 14 -19 16 -19 28 -2 12 15 15 11 29
-40 29 -106 31 -131 12 -160 -14 -21 -15 -28 -5 -31 8 -3 24 -15 37 -28 29
-29 30 -76 3 -113 l-19 -28 33 -16 c25 -12 35 -24 40 -50 7 -36 -5 -80 -23
-92 -18 -11 -12 -23 15 -29 17 -5 30 -19 40 -42 17 -39 11 -68 -18 -100 -19
-21 -19 -21 12 -27 33 -7 50 -36 50 -87 0 -27 -32 -70 -52 -70 -13 0 -9 22 8
42 16 17 14 19 -27 38 -26 11 -66 20 -97 20 -43 0 -57 -5 -78 -25 -17 -17 -24
-34 -22 -53 l3 -27 135 -6 c74 -4 136 -7 137 -8 35 -23 44 -85 17 -126 -19
-29 -50 -35 -39 -7 13 32 10 46 -15 60 -20 10 -70 12 -245 8 -291 -6 -500 -35
-675 -92 -89 -29 -329 -144 -348 -167 -17 -20 -19 -74 -4 -89 8 -8 47 6 149
55 201 96 283 118 615 162 139 19 213 23 376 22 201 -2 204 -2 223 -26 26 -32
25 -85 -3 -111 -32 -29 -41 -25 -34 15 6 31 4 36 -19 45 -56 21 -376 5 -625
-31 -208 -30 -372 -80 -541 -165 -102 -50 -119 -66 -119 -103 0 -59 18 -58
167 7 76 33 174 72 218 85 161 50 584 107 796 107 183 0 196 -3 209 -49 14
-50 13 -58 -10 -81 -28 -28 -41 -25 -38 7 6 54 -81 63 -362 38 -416 -38 -588
-79 -824 -197 -102 -51 -116 -63 -116 -103 0 -58 17 -60 123 -11 236 110 345
138 732 186 279 35 412 45 475 33 42 -8 46 -11 64 -58 11 -31 20 -87 24 -147
4 -92 3 -100 -25 -161 -57 -121 -207 -254 -392 -346 l-83 -42 7 -47 c12 -85
46 -205 76 -269 58 -125 47 -243 -32 -321 -35 -36 -56 -48 -111 -66 -14 -4
-18 -17 -18 -57 l0 -51 38 6 c20 4 45 9 55 12 13 4 17 -1 18 -23 2 -54 4 -58
23 -58 27 0 33 -25 7 -32 -20 -5 -21 -12 -21 -132 0 -69 5 -303 10 -519 8
-331 12 -401 27 -442 16 -46 16 -50 0 -68 -14 -15 -17 -40 -17 -146 0 -92 -3
-128 -12 -131 -7 -2 -39 -11 -70 -20 l-58 -16 0 -725 0 -724 63 6 c275 23 425
45 618 89 1186 272 2176 1106 2648 2231 393 937 389 2007 -11 2949 -133 314
-312 610 -540 897 -109 136 -425 452 -562 561 -603 479 -1285 757 -2031 827
-116 10 -413 19 -505 14z m-177 -4152 c9 -10 23 -34 32 -55 19 -45 21 -147 3
-147 -20 0 -140 158 -132 172 28 50 68 62 97 30z m-43 -142 c24 -30 52 -62 62
-70 22 -18 16 -45 -14 -61 -46 -25 -108 62 -108 153 0 28 4 48 8 43 5 -6 28
-35 52 -65z"/>
<path d="M4330 6645 c-281 -29 -392 -59 -570 -151 -147 -77 -186 -105 -192
-137 -5 -27 7 -67 21 -67 5 0 57 27 115 61 215 123 319 155 601 184 170 17
446 21 506 6 33 -7 36 -6 48 20 16 36 12 42 -46 69 -42 20 -67 23 -198 26 -82
2 -211 -3 -285 -11z"/>
<path d="M4450 6474 c-264 -23 -423 -55 -549 -109 -69 -29 -264 -136 -284
-155 -12 -11 -11 -80 1 -92 8 -8 41 6 109 44 222 126 308 156 513 182 292 36
475 42 624 19 29 -4 37 -3 32 6 -4 6 -2 18 4 26 17 21 6 41 -32 61 -27 15 -63
18 -203 20 -93 1 -190 0 -215 -2z"/>
<path d="M4560 6298 c-385 -21 -555 -64 -800 -202 -102 -58 -120 -76 -120
-119 0 -50 23 -52 97 -9 231 134 318 161 648 201 186 23 360 31 473 22 61 -5
72 -4 72 9 0 9 6 22 13 29 10 10 7 17 -15 36 -41 35 -152 45 -368 33z"/>
<path d="M4413 6105 c-246 -25 -359 -57 -549 -154 -183 -93 -184 -94 -184
-139 0 -67 9 -66 173 17 175 90 247 111 482 146 172 26 216 40 235 76 15 26 9
63 -10 65 -8 1 -74 -4 -147 -11z"/>
<path d="M4740 6106 c0 -7 20 -32 45 -55 44 -40 46 -41 119 -41 68 0 74 2 69
19 -3 10 0 22 6 25 19 12 12 26 -21 46 -27 16 -51 20 -125 20 -72 0 -93 -3
-93 -14z"/>
<path d="M3421 6055 c-36 -41 -54 -95 -49 -148 l3 -38 53 66 c45 58 52 73 52
111 0 55 -16 57 -59 9z"/>
<path d="M4610 6070 c-41 -41 -20 -137 39 -179 80 -57 163 8 131 103 -26 79
-123 123 -170 76z m121 -29 c33 -32 39 -45 39 -80 0 -44 -26 -81 -57 -81 -31
0 -79 36 -96 73 -20 41 -21 61 -6 90 27 51 69 50 120 -2z"/>
<path d="M4425 5923 c-118 -14 -235 -39 -321 -68 -131 -44 -358 -157 -380
-190 -18 -28 -11 -85 12 -85 8 0 63 24 122 54 216 107 296 130 600 167 201 25
209 29 155 84 -44 43 -82 51 -188 38z"/>
<path d="M3600 5184 c-39 -44 -50 -72 -43 -107 8 -42 20 -42 68 4 47 45 57 79
35 120 -15 27 -23 24 -60 -17z"/>
<path d="M5063 5158 c-4 -7 -8 -74 -8 -148 0 -128 -1 -138 -28 -188 -15 -29
-63 -90 -105 -134 -66 -69 -72 -78 -42 -63 60 31 197 175 227 241 25 53 28 70
28 165 0 75 -4 111 -14 122 -16 20 -47 22 -58 5z"/>
<path d="M5189 5163 c-1 -5 -2 -55 -3 -113 -1 -122 -14 -159 -90 -255 l-47
-60 64 67 c95 97 119 144 125 239 4 62 1 84 -12 104 -16 24 -35 33 -37 18z"/>
<path d="M4915 5148 c-2 -7 -5 -78 -7 -158 -3 -144 -3 -146 -38 -210 -23 -44
-67 -97 -133 -164 -55 -55 -91 -96 -81 -92 93 35 256 181 309 277 29 52 30 58
30 185 0 116 -2 134 -19 153 -21 23 -54 28 -61 9z"/>
<path d="M4754 5128 c-4 -7 -8 -73 -8 -148 -1 -124 -3 -140 -27 -190 -32 -69
-111 -164 -190 -230 -70 -59 -55 -66 39 -20 116 59 248 215 273 323 17 80 9
230 -15 256 -21 23 -61 28 -72 9z"/>
<path d="M4570 5101 c-5 -11 -10 -64 -10 -119 0 -57 -6 -119 -14 -147 -22 -70
-78 -150 -169 -237 -71 -68 -78 -78 -56 -79 47 -2 74 3 99 18 54 34 186 180
220 243 34 64 35 67 35 181 0 101 -3 120 -19 138 -24 27 -72 28 -86 2z"/>
<path d="M4359 5071 c-22 -18 -24 -27 -24 -113 0 -92 -1 -95 -42 -164 -23 -38
-71 -102 -108 -142 l-66 -72 45 -21 45 -22 47 38 c154 126 223 239 226 365 2
75 -9 117 -35 135 -29 20 -60 19 -88 -4z"/>
<path d="M4488 4233 c-21 -2 -38 -6 -38 -8 0 -2 11 -21 25 -41 14 -20 25 -43
25 -50 0 -9 14 -11 58 -7 31 3 58 7 59 7 1 1 -5 25 -14 54 -18 57 -14 55 -115
45z"/>
<path d="M4572 4002 c-28 -2 -42 -7 -39 -15 6 -19 62 -20 77 -2 16 20 14 21
-38 17z"/>
<path d="M4610 3521 l-135 -26 1 -70 c1 -39 3 -243 4 -455 1 -212 5 -399 7
-416 l5 -31 140 37 141 37 -3 314 c-1 173 -3 328 -5 344 -2 17 -3 90 -4 163
-1 72 -4 132 -8 131 -5 -1 -69 -13 -143 -28z"/>
</g>
</svg>
